<svg width="89" height="21" viewBox="0 0 89 21" fill="none" xmlns="http://www.w3.org/2000/svg">
<path d="M9.36364 6.99998C9.23864 6.61741 9.07386 6.27461 8.86932 5.97158C8.66856 5.66476 8.42803 5.40339 8.14773 5.18748C7.87121 4.97158 7.55682 4.8068 7.20455 4.69317C6.85227 4.57953 6.46591 4.52271 6.04545 4.52271C5.35606 4.52271 4.72917 4.70074 4.16477 5.0568C3.60038 5.41286 3.15152 5.93748 2.81818 6.63067C2.48485 7.32385 2.31818 8.17423 2.31818 9.1818C2.31818 10.1894 2.48674 11.0398 2.82386 11.7329C3.16098 12.4261 3.61742 12.9507 4.19318 13.3068C4.76894 13.6629 5.41667 13.8409 6.13636 13.8409C6.80303 13.8409 7.39015 13.6988 7.89773 13.4148C8.40909 13.1269 8.80682 12.7216 9.09091 12.1988C9.37879 11.6723 9.52273 11.053 9.52273 10.3409L9.95455 10.4318H6.45455V9.1818H10.8864V10.4318C10.8864 11.3901 10.6818 12.2235 10.2727 12.9318C9.86742 13.6401 9.30682 14.1894 8.59091 14.5795C7.87879 14.9659 7.06061 15.1591 6.13636 15.1591C5.10606 15.1591 4.20076 14.9167 3.42045 14.4318C2.64394 13.947 2.03788 13.2576 1.60227 12.3636C1.17045 11.4697 0.954545 10.4091 0.954545 9.1818C0.954545 8.26135 1.07765 7.4337 1.32386 6.69885C1.57386 5.96021 1.92614 5.33142 2.38068 4.81248C2.83523 4.29355 3.37311 3.89582 3.99432 3.6193C4.61553 3.34279 5.29924 3.20453 6.04545 3.20453C6.65909 3.20453 7.23106 3.29733 7.76136 3.48294C8.29545 3.66476 8.77083 3.92423 9.1875 4.26135C9.60795 4.59468 9.95833 4.9943 10.2386 5.46021C10.5189 5.92233 10.7121 6.43559 10.8182 6.99998H9.36364ZM13.2997 15V3.36362H17.2315C18.1406 3.36362 18.8868 3.51892 19.4702 3.82953C20.0535 4.13635 20.4853 4.5587 20.7656 5.09658C21.0459 5.63445 21.1861 6.2462 21.1861 6.9318C21.1861 7.61741 21.0459 8.22536 20.7656 8.75567C20.4853 9.28597 20.0554 9.70264 19.4759 10.0057C18.8963 10.3049 18.1558 10.4545 17.2543 10.4545H14.0724V9.1818H17.2088C17.83 9.1818 18.33 9.09089 18.7088 8.90908C19.0914 8.72726 19.3679 8.46968 19.5384 8.13635C19.7126 7.79923 19.7997 7.39771 19.7997 6.9318C19.7997 6.46589 19.7126 6.0587 19.5384 5.71021C19.3641 5.36173 19.0857 5.09279 18.7031 4.90339C18.3205 4.71021 17.8149 4.61362 17.1861 4.61362H14.7088V15H13.2997ZM18.777 9.77271L21.6406 15H20.0043L17.1861 9.77271H18.777ZM29.8977 6.27271C29.8295 5.69695 29.553 5.24998 29.0682 4.9318C28.5833 4.61362 27.9886 4.45453 27.2841 4.45453C26.7689 4.45453 26.3182 4.53786 25.9318 4.70453C25.5492 4.8712 25.25 5.10036 25.0341 5.39203C24.822 5.6837 24.7159 6.01514 24.7159 6.38635C24.7159 6.69695 24.7898 6.964 24.9375 7.18748C25.089 7.40718 25.2822 7.59089 25.517 7.73862C25.7519 7.88256 25.9981 8.00188 26.2557 8.09658C26.5133 8.18748 26.75 8.26135 26.9659 8.31817L28.1477 8.63635C28.4508 8.71589 28.7879 8.82574 29.1591 8.96589C29.5341 9.10605 29.892 9.29733 30.233 9.53976C30.5777 9.77839 30.8617 10.0852 31.0852 10.4602C31.3087 10.8352 31.4205 11.2954 31.4205 11.8409C31.4205 12.4697 31.2557 13.0379 30.9261 13.5454C30.6004 14.053 30.1231 14.4564 29.4943 14.7557C28.8693 15.0549 28.1098 15.2045 27.2159 15.2045C26.3826 15.2045 25.661 15.0701 25.0511 14.8011C24.4451 14.5322 23.9678 14.1572 23.6193 13.6761C23.2746 13.1951 23.0795 12.6363 23.0341 12H24.4886C24.5265 12.4394 24.6742 12.803 24.9318 13.0909C25.1932 13.375 25.5227 13.5871 25.9205 13.7273C26.322 13.8636 26.7538 13.9318 27.2159 13.9318C27.7538 13.9318 28.2367 13.8447 28.6648 13.6704C29.0928 13.4924 29.4318 13.2462 29.6818 12.9318C29.9318 12.6136 30.0568 12.2424 30.0568 11.8182C30.0568 11.4318 29.9489 11.1174 29.733 10.875C29.517 10.6326 29.233 10.4356 28.8807 10.2841C28.5284 10.1326 28.1477 9.99998 27.7386 9.88635L26.3068 9.47726C25.3977 9.21589 24.678 8.84279 24.1477 8.35794C23.6174 7.87309 23.3523 7.23862 23.3523 6.45453C23.3523 5.80301 23.5284 5.23483 23.8807 4.74998C24.2367 4.26135 24.714 3.88256 25.3125 3.61362C25.9148 3.34089 26.5871 3.20453 27.3295 3.20453C28.0795 3.20453 28.7462 3.339 29.3295 3.60794C29.9129 3.87309 30.375 4.23673 30.7159 4.69885C31.0606 5.16097 31.2424 5.68559 31.2614 6.27271H29.8977Z" fill="#959595"/>
<path d="M33.3395 15V3.36362H37.9304C38.813 3.36362 39.5649 3.53218 40.1861 3.8693C40.8073 4.20264 41.2808 4.66665 41.6065 5.26135C41.9361 5.85226 42.1009 6.53408 42.1009 7.3068C42.1009 8.07953 41.9342 8.76135 41.6009 9.35226C41.2675 9.94317 40.7846 10.4034 40.152 10.7329C39.5232 11.0625 38.7618 11.2273 37.8679 11.2273H34.9418V9.25567H37.4702C37.9437 9.25567 38.3338 9.17423 38.6406 9.01135C38.9512 8.84468 39.1823 8.61551 39.3338 8.32385C39.4891 8.02839 39.5668 7.68938 39.5668 7.3068C39.5668 6.92044 39.4891 6.58332 39.3338 6.29544C39.1823 6.00377 38.9512 5.77839 38.6406 5.6193C38.33 5.45642 37.9361 5.37498 37.4588 5.37498H35.7997V15H33.3395ZM44.3608 15H41.7244L45.7415 3.36362H48.9119L52.9233 15H50.2869L47.3722 6.02271H47.2812L44.3608 15ZM44.196 10.4261H50.4233V12.3466H44.196V10.4261ZM52.4545 3.36362H55.2102L57.8636 8.37498H57.9773L60.6307 3.36362H63.3864L59.142 10.8863V15H56.6989V10.8863L52.4545 3.36362Z" fill="white"/>
<path fill-rule="evenodd" clip-rule="evenodd" d="M73.2028 13.8617L73.1995 13.8662L73.1963 13.8707C73.0183 14.1227 72.6196 14.1968 72.3077 13.9765C72.0581 13.8002 71.9831 13.4074 72.1957 13.097C72.5128 12.6927 72.7431 12.2201 72.8944 11.7581C73.0519 11.2771 73.1251 10.7305 73.1223 10.1944C73.1194 9.65838 73.0404 9.11262 72.8778 8.63333C72.7216 8.17295 72.4862 7.7028 72.1648 7.30194C71.9489 6.99377 72.0198 6.60017 72.2675 6.42122C72.577 6.19768 72.9765 6.26749 73.1571 6.51761L73.1604 6.5221L73.1637 6.5265C73.5638 7.05405 73.8919 7.64018 74.088 8.21523C74.2944 8.89171 74.4259 9.54608 74.4293 10.1875C74.4329 10.8624 74.3684 11.5013 74.1207 12.1302C73.851 12.8151 73.5898 13.34 73.2028 13.8617ZM76.0954 15.1145L76.1032 15.1034L76.1104 15.0919C76.9971 13.6713 77.5085 11.957 77.499 10.1711C77.4895 8.3857 76.9601 6.67737 76.0587 5.26646C75.8634 4.95669 75.9511 4.59045 76.2804 4.35261C76.5015 4.19288 76.9166 4.24944 77.1629 4.57952C78.1806 6.19416 78.7953 8.146 78.8061 10.1642C78.8172 12.2512 78.2238 14.1397 77.2224 15.7661C76.9908 16.085 76.6361 16.1743 76.3303 15.9936C75.9988 15.7507 75.9382 15.337 76.0954 15.1145ZM81.2861 2.45724L81.2948 2.47449L81.3049 2.49097C82.6839 4.73919 83.4502 7.33243 83.4652 10.1394C83.4801 12.945 82.7421 15.5451 81.3884 17.8072C81.1808 18.1409 80.8304 18.235 80.4752 18.0697C80.1519 17.859 80.065 17.5098 80.2339 17.1571C81.3852 15.1125 82.1011 12.703 82.0875 10.1467C82.074 7.60176 81.4085 5.19618 80.1569 3.15136C79.9875 2.80222 80.0714 2.45448 80.3909 2.24137C80.7763 2.05725 81.1518 2.1922 81.2861 2.45724ZM85.3691 0.317663L85.3751 0.329447L85.3817 0.340883C87.0528 3.22941 88.0346 6.53184 88.0536 10.1149C88.0727 13.6943 87.1281 17.0039 85.491 19.9079C85.2831 20.2378 84.9343 20.3302 84.5808 20.1656C84.2585 19.9556 84.1712 19.608 84.3379 19.2564C85.915 16.5648 86.7643 13.4463 86.7466 10.1219C86.7288 6.78887 85.7717 3.68251 84.2427 1.0174C84.0511 0.628355 84.1861 0.247321 84.4535 0.111831C84.846 -0.0870442 85.2325 0.0479558 85.3691 0.317663Z" fill="white"/>
</svg>
